<svg width="656" height="228" viewBox="0 0 656 228" fill="none" xmlns="http://www.w3.org/2000/svg">
<path d="M88.2756 155V74.8182H100.178V86.929H101.013C102.474 82.9616 105.119 79.7425 108.947 77.2717C112.776 74.8008 117.091 73.5653 121.893 73.5653C122.798 73.5653 123.929 73.5827 125.287 73.6175C126.644 73.6523 127.67 73.7045 128.366 73.7741V86.3026C127.949 86.1982 126.992 86.0415 125.495 85.8327C124.034 85.5891 122.485 85.4673 120.849 85.4673C116.952 85.4673 113.472 86.2852 110.409 87.9208C107.381 89.5217 104.98 91.7489 103.205 94.6026C101.465 97.4215 100.595 100.641 100.595 104.26V155H88.2756ZM174.147 156.67C166.422 156.67 159.757 154.965 154.154 151.555C148.586 148.109 144.288 143.307 141.26 137.147C138.267 130.952 136.771 123.749 136.771 115.536C136.771 107.322 138.267 100.084 141.26 93.8196C144.288 87.5206 148.499 82.6136 153.893 79.0987C159.322 75.549 165.656 73.7741 172.895 73.7741C177.071 73.7741 181.195 74.4702 185.266 75.8622C189.338 77.2543 193.044 79.5163 196.385 82.6484C199.726 85.7457 202.388 89.8523 204.372 94.968C206.356 100.084 207.348 106.383 207.348 113.865V119.085H145.541V108.436H194.819C194.819 103.912 193.914 99.875 192.105 96.3253C190.33 92.7756 187.789 89.9741 184.483 87.9208C181.212 85.8675 177.349 84.8409 172.895 84.8409C167.988 84.8409 163.742 86.0589 160.157 88.495C156.608 90.8963 153.876 94.0284 151.962 97.8913C150.048 101.754 149.091 105.896 149.091 110.315V117.415C149.091 123.47 150.135 128.603 152.223 132.814C154.346 136.99 157.286 140.175 161.045 142.367C164.803 144.525 169.171 145.604 174.147 145.604C177.384 145.604 180.307 145.151 182.917 144.246C185.562 143.307 187.842 141.915 189.756 140.07C191.67 138.191 193.149 135.859 194.193 133.075L206.095 136.416C204.842 140.453 202.737 144.003 199.778 147.065C196.82 150.093 193.166 152.46 188.816 154.165C184.466 155.835 179.576 156.67 174.147 156.67Z" fill="#FF0000"/>
<path d="M226.088 155V74.8182H237.99V87.3466H239.034C240.705 83.0661 243.402 79.7425 247.125 77.3761C250.849 74.9748 255.321 73.7741 260.541 73.7741C265.831 73.7741 270.233 74.9748 273.748 77.3761C277.298 79.7425 280.065 83.0661 282.048 87.3466H282.884C284.937 83.2053 288.017 79.9165 292.123 77.4805C296.23 75.0096 301.154 73.7741 306.896 73.7741C314.065 73.7741 319.929 76.0188 324.488 80.5082C329.047 84.9627 331.327 91.9055 331.327 101.337V155H319.007V101.337C319.007 95.4205 317.389 91.1921 314.152 88.6516C310.916 86.1111 307.105 84.8409 302.72 84.8409C297.082 84.8409 292.715 86.5462 289.618 89.9567C286.52 93.3324 284.972 97.6129 284.972 102.798V155H272.443V100.084C272.443 95.5249 270.964 91.8533 268.006 89.0692C265.048 86.2504 261.237 84.8409 256.574 84.8409C253.372 84.8409 250.379 85.6935 247.595 87.3988C244.846 89.104 242.619 91.4705 240.913 94.4982C239.243 97.4911 238.408 100.954 238.408 104.886V155H226.088ZM377.447 156.879C372.366 156.879 367.755 155.922 363.613 154.008C359.472 152.059 356.183 149.258 353.747 145.604C351.311 141.915 350.093 137.46 350.093 132.24C350.093 127.646 350.998 123.923 352.808 121.069C354.617 118.18 357.036 115.918 360.064 114.283C363.091 112.647 366.432 111.429 370.086 110.629C373.775 109.793 377.482 109.132 381.205 108.645C386.078 108.018 390.028 107.549 393.055 107.235C396.118 106.887 398.345 106.313 399.737 105.513C401.164 104.712 401.877 103.32 401.877 101.337V100.919C401.877 95.7685 400.468 91.7663 397.649 88.9126C394.865 86.0589 390.637 84.6321 384.964 84.6321C379.083 84.6321 374.471 85.9197 371.131 88.495C367.79 91.0703 365.441 93.8196 364.083 96.7429L352.39 92.5668C354.478 87.6946 357.262 83.9013 360.742 81.1868C364.257 78.4375 368.085 76.5234 372.227 75.4446C376.403 74.331 380.509 73.7741 384.546 73.7741C387.122 73.7741 390.08 74.0874 393.421 74.7138C396.796 75.3054 400.05 76.5408 403.182 78.4201C406.349 80.2994 408.977 83.1357 411.065 86.929C413.153 90.7223 414.197 95.8033 414.197 102.172V155H401.877V144.142H401.251C400.416 145.882 399.024 147.744 397.075 149.728C395.126 151.711 392.533 153.399 389.297 154.791C386.06 156.183 382.11 156.879 377.447 156.879ZM379.326 145.812C384.198 145.812 388.305 144.855 391.646 142.941C395.021 141.027 397.562 138.556 399.267 135.529C401.007 132.501 401.877 129.317 401.877 125.976V114.7C401.355 115.327 400.207 115.901 398.432 116.423C396.692 116.91 394.673 117.345 392.377 117.728C390.115 118.076 387.905 118.389 385.747 118.668C383.624 118.911 381.901 119.12 380.579 119.294C377.377 119.712 374.384 120.39 371.6 121.33C368.851 122.235 366.624 123.609 364.919 125.454C363.248 127.263 362.413 129.734 362.413 132.866C362.413 137.147 363.996 140.384 367.163 142.576C370.365 144.734 374.419 145.812 379.326 145.812ZM436.683 155V74.8182H448.585V86.929H449.42C450.882 82.9616 453.527 79.7425 457.355 77.2717C461.183 74.8008 465.498 73.5653 470.301 73.5653C471.206 73.5653 472.337 73.5827 473.694 73.6175C475.051 73.6523 476.078 73.7045 476.774 73.7741V86.3026C476.356 86.1982 475.399 86.0415 473.903 85.8327C472.441 85.5891 470.892 85.4673 469.257 85.4673C465.359 85.4673 461.879 86.2852 458.816 87.9208C455.789 89.5217 453.387 91.7489 451.612 94.6026C449.872 97.4215 449.002 100.641 449.002 104.26V155H436.683ZM502.862 125.767L502.653 110.524H505.158L540.238 74.8182H555.481L518.104 112.612H517.06L502.862 125.767ZM491.377 155V48.0909H503.697V155H491.377ZM542.326 155L511.005 115.327L519.775 106.766L557.987 155H542.326Z" fill="white"/>
</svg>
